<?xml version="1.0" encoding="utf-8"?>
<!-- Generator: Adobe Illustrator 21.1.0, SVG Export Plug-In . SVG Version: 6.00 Build 0)  -->
<svg version="1.1" id="Capa_1" xmlns="http://www.w3.org/2000/svg" xmlns:xlink="http://www.w3.org/1999/xlink" x="0px" y="0px"
	 viewBox="0 0 512 512" style="enable-background:new 0 0 512 512;" xml:space="preserve">
<style type="text/css">
	.st0{fill:#FFFFFF;}
</style>
<g>
	<path class="st0" d="M268,411.9H244c-2.1,0-3.8,1.7-3.8,3.8v15.8c0,2.1,1.7,3.8,3.8,3.8H268c2.1,0,3.8-1.7,3.8-3.8v-15.8
		C271.8,413.7,270.1,411.9,268,411.9z"/>
	<path class="st0" d="M365.5,47.9H146.5c-13.9,0-25.2,11.3-25.2,25.2v365.8c0,13.9,11.3,25.2,25.2,25.2h219.1
		c13.9,0,25.2-11.3,25.2-25.2V73.1C390.8,59.2,379.4,47.9,365.5,47.9z M237.2,66.8h37.5c3.5,0,6.3,2.8,6.3,6.3s-2.8,6.3-6.3,6.3
		h-37.5c-3.5,0-6.3-2.8-6.3-6.3S233.8,66.8,237.2,66.8z M284.4,431.5c0,9-7.4,16.4-16.4,16.4H244c-9,0-16.4-7.4-16.4-16.4v-15.8
		c0-9,7.4-16.4,16.4-16.4H268c9,0,16.4,7.4,16.4,16.4V431.5L284.4,431.5z M362.7,379.9c0,3.5-2.8,6.3-6.3,6.3H155.6
		c-3.5,0-6.3-2.8-6.3-6.3V101.4c0-3.5,2.8-6.3,6.3-6.3h200.8c3.5,0,6.3,2.8,6.3,6.3L362.7,379.9L362.7,379.9z"/>
	<path class="st0" d="M483.3,154.1c-4.3-5.5-12.3-6.4-17.7-2c-5.5,4.3-6.4,12.3-2,17.7c15.2,19.2,23.2,42.2,23.2,66.6
		c0,24.7-8.2,47.9-23.7,67.2c-4.4,5.4-3.5,13.4,1.9,17.7c2.3,1.9,5.1,2.8,7.9,2.8c3.7,0,7.3-1.6,9.8-4.7
		c18.8-23.4,29.2-52.9,29.2-83C512,206.2,502.1,177.7,483.3,154.1z"/>
	<path class="st0" d="M444.7,182.9c-4.3-5.5-12.3-6.4-17.7-2c-5.5,4.3-6.4,12.3-2,17.7c8.6,10.9,13.2,24,13.2,37.9
		c0,14.1-4.7,27.3-13.5,38.2c-4.4,5.4-3.5,13.4,1.9,17.7c2.3,1.9,5.1,2.8,7.9,2.8c3.7,0,7.3-1.6,9.8-4.7c12.3-15.3,19-34.4,19-54
		C463.3,216.9,456.9,198.3,444.7,182.9z"/>
	<path class="st0" d="M25.2,237c0-24.7,8.2-47.9,23.7-67.2c4.4-5.4,3.5-13.4-1.9-17.7c-5.4-4.4-13.4-3.5-17.7,1.9
		C10.4,177.5,0,206.9,0,237c0,30.2,9.9,58.7,28.7,82.3c2.5,3.1,6.2,4.8,9.9,4.8c2.7,0,5.5-0.9,7.8-2.7c5.5-4.3,6.4-12.3,2-17.7
		C33.3,284.5,25.2,261.5,25.2,237z"/>
	<path class="st0" d="M85.4,181c-5.4-4.4-13.4-3.5-17.7,1.9c-12.3,15.3-19,34.4-19,54c0,19.7,6.5,38.2,18.7,53.6
		c2.5,3.1,6.2,4.8,9.9,4.8c2.7,0,5.5-0.9,7.8-2.7c5.5-4.3,6.4-12.3,2-17.7c-8.6-10.9-13.2-24-13.2-37.9c0-14.1,4.7-27.3,13.5-38.2
		C91.7,193.3,90.8,185.3,85.4,181z"/>
</g>
</svg>
